<?xml version="1.0" encoding="UTF-8" standalone="no"?>
<svg width="11px" height="20px" viewBox="0 0 11 20" version="1.1" xmlns="http://www.w3.org/2000/svg" xmlns:xlink="http://www.w3.org/1999/xlink">
    <!-- Generator: Sketch 50.2 (55047) - http://www.bohemiancoding.com/sketch -->
    <title>Facebook</title>
    <desc>Created with Sketch.</desc>
    <defs></defs>
    <g id="Page-1" stroke="none" stroke-width="1" fill="none" fill-rule="evenodd">
        <g id="Menu,-jezyki" transform="translate(-1717.000000, -39.000000)" fill="#F9F9F9">
            <path d="M1727.58577,39.0041613 L1724.94737,39 C1721.98322,39 1720.06766,40.9318998 1720.06766,43.922027 L1720.06766,46.191411 L1717.41486,46.191411 C1717.18563,46.191411 1717,46.3740936 1717,46.5994299 L1717,49.8875087 C1717,50.112845 1717.18584,50.2953195 1717.41486,50.2953195 L1720.06766,50.2953195 L1720.06766,58.5921892 C1720.06766,58.8175255 1720.25329,59 1720.48252,59 L1723.94366,59 C1724.17289,59 1724.35852,58.8173174 1724.35852,58.5921892 L1724.35852,50.2953195 L1727.46026,50.2953195 C1727.68949,50.2953195 1727.87512,50.112845 1727.87512,49.8875087 L1727.87639,46.5994299 C1727.87639,46.4912352 1727.83257,46.3876179 1727.75489,46.3110494 C1727.67721,46.2344808 1727.57138,46.191411 1727.46131,46.191411 L1724.35852,46.191411 L1724.35852,44.2676259 C1724.35852,43.3429772 1724.58267,42.8735786 1725.808,42.8735786 L1727.58535,42.8729544 C1727.81437,42.8729544 1728,42.6902718 1728,42.4651436 L1728,39.4119722 C1728,39.187052 1727.81458,39.0045775 1727.58577,39.0041613 Z" id="Facebook"></path>
        </g>
    </g>
</svg>