<?xml version="1.0" encoding="UTF-8" standalone="no"?>
<svg width="20px" height="20px" viewBox="0 0 20 20" version="1.1" xmlns="http://www.w3.org/2000/svg" xmlns:xlink="http://www.w3.org/1999/xlink">
    <!-- Generator: Sketch 50.2 (55047) - http://www.bohemiancoding.com/sketch -->
    <title>Instagram</title>
    <desc>Created with Sketch.</desc>
    <defs></defs>
    <g id="Page-1" stroke="none" stroke-width="1" fill="none" fill-rule="evenodd">
        <g id="Menu,-jezyki" transform="translate(-1748.000000, -39.000000)" fill="#F9F9F9" fill-rule="nonzero">
            <path d="M1762.58618,39 L1753.41382,39 C1750.42859,39 1748,41.4285889 1748,44.4138184 L1748,53.5863342 C1748,56.5714111 1750.42859,59 1753.41382,59 L1762.58633,59 C1765.57141,59 1768,56.5714111 1768,53.5863342 L1768,44.4138184 C1768,41.4285889 1765.57141,39 1762.58618,39 Z M1752.5314,49 C1752.5314,45.9845581 1754.98456,43.5314026 1758,43.5314026 C1761.01544,43.5314026 1763.4686,45.9845581 1763.4686,49 C1763.4686,52.0154419 1761.01544,54.4685974 1758,54.4685974 C1754.98456,54.4685974 1752.5314,52.0154419 1752.5314,49 Z M1763.59937,44.8210754 C1762.70825,44.8210754 1761.98346,44.096283 1761.98346,43.2051697 C1761.98346,42.3140564 1762.70825,41.5891113 1763.59937,41.5891113 C1764.49048,41.5891113 1765.21542,42.3140564 1765.21542,43.2051697 C1765.21542,44.096283 1764.49048,44.8210754 1763.59937,44.8210754 Z M1757.97001,45.1999969 C1760.04883,45.1999969 1761.74001,46.8911744 1761.74001,48.9699969 C1761.74001,51.0486856 1760.04883,52.7399969 1757.97001,52.7399969 C1755.89132,52.7399969 1754.20001,51.0486856 1754.20001,48.9699969 C1754.20001,46.8911744 1755.89132,45.1999969 1757.97001,45.1999969 Z" id="Instagram"></path>
        </g>
    </g>
</svg>